HIERARCHY
ROOT root
{
	OFFSET 0.000000 0.000000 0.000000
	CHANNELS 6 Xposition Yposition Zposition Zrotation Yrotation Xrotation
	JOINT lhip
	{
		OFFSET 0.058581 -0.082280 -0.017664
		CHANNELS 3 Zrotation Yrotation Xrotation
		JOINT lknee
		{
			OFFSET 0.043451 -0.386469 0.008037
			CHANNELS 3 Zrotation Yrotation Xrotation
			JOINT lankle
			{
				OFFSET -0.014790 -0.426874 -0.037428
				CHANNELS 3 Zrotation Yrotation Xrotation
				JOINT ltoe
				{
					OFFSET 0.041054 -0.060286 0.122042
					CHANNELS 3 Zrotation Yrotation Xrotation
					End Site
					{
						OFFSET 0.000000 0.000000 0.000000
					}
				}
			}
		}
	}
	JOINT rhip
	{
		OFFSET -0.060310 -0.090513 -0.013543
		CHANNELS 3 Zrotation Yrotation Xrotation
		JOINT rknee
		{
			OFFSET -0.043257 -0.383688 -0.004843
			CHANNELS 3 Zrotation Yrotation Xrotation
			JOINT rankle
			{
				OFFSET 0.019056 -0.420046 -0.034562
				CHANNELS 3 Zrotation Yrotation Xrotation
				JOINT rtoe
				{
					OFFSET -0.034840 -0.062106 0.130323
					CHANNELS 3 Zrotation Yrotation Xrotation
					End Site
					{
						OFFSET 0.000000 0.000000 0.000000
					}
				}
			}
		}
	}
	JOINT lowerback
	{
		OFFSET 0.004439 0.124404 -0.038385
		CHANNELS 3 Zrotation Yrotation Xrotation
		JOINT upperback
		{
			OFFSET 0.004488 0.137956 0.026820
			CHANNELS 3 Zrotation Yrotation Xrotation
			JOINT chest
			{
				OFFSET -0.002265 0.056032 0.002855
				CHANNELS 3 Zrotation Yrotation Xrotation
				JOINT lowerneck
				{
					OFFSET -0.013390 0.211636 -0.033468
					CHANNELS 3 Zrotation Yrotation Xrotation
					JOINT upperneck
					{
						OFFSET 0.010113 0.088937 0.050410
						CHANNELS 3 Zrotation Yrotation Xrotation
						End Site
						{
							OFFSET 0.000000 0.000000 0.000000
						}
					}
				}
				JOINT lclavicle
				{
					OFFSET 0.071702 0.114000 -0.018898
					CHANNELS 3 Zrotation Yrotation Xrotation
					JOINT lshoulder
					{
						OFFSET 0.122921 0.045205 -0.019046
						CHANNELS 3 Zrotation Yrotation Xrotation
						JOINT lelbow
						{
							OFFSET 0.255332 -0.015649 -0.022946
							CHANNELS 3 Zrotation Yrotation Xrotation
							JOINT lwrist
							{
								OFFSET 0.265709 0.012698 -0.007375
								CHANNELS 3 Zrotation Yrotation Xrotation
								End Site
								{
									OFFSET 0.000000 0.000000 0.000000
								}
							}
						}
					}
				}
				JOINT rclavicle
				{
					OFFSET -0.082954 0.112472 -0.023707
					CHANNELS 3 Zrotation Yrotation Xrotation
					JOINT rshoulder
					{
						OFFSET -0.113228 0.046853 -0.008472
						CHANNELS 3 Zrotation Yrotation Xrotation
						JOINT relbow
						{
							OFFSET -0.260127 -0.014369 -0.031269
							CHANNELS 3 Zrotation Yrotation Xrotation
							JOINT rwrist
							{
								OFFSET -0.269108 0.006794 -0.006027
								CHANNELS 3 Zrotation Yrotation Xrotation
								End Site
								{
									OFFSET 0.000000 0.000000 0.000000
								}
							}
						}
					}
				}
			}
		}
	}
}
MOTION
Frames: 16
Frame Time: 0.033333
0.000896 0.438514 1.001530 -163.955769 -0.780249 87.371244 3.620890 -6.718194 -1.271080 -5.969407 -7.631896 4.697664 -0.969930 5.601888 -4.204105 0.000000 -0.000000 0.000000 -6.305559 -7.473848 6.581047 3.397226 -7.743043 1.725233 5.827625 -7.897245 -6.525761 0.000000 -0.000000 0.000000 -4.400406 2.968243 3.636979 -0.320501 -1.194042 -2.550594 -1.441997 1.198029 -0.370055 1.427348 8.534679 -4.627310 4.352185 -1.931303 8.180079 -20.211100 -0.128675 -3.234458 -37.238434 -28.081589 14.904166 96.759366 -79.822093 -87.589833 -3.609867 -28.014401 -49.427175 27.574222 -0.975851 3.538057 49.647536 2.967490 19.917636 -6.221488 28.745576 9.769288 21.423177 10.914896 -1.329200 
0.001610 0.436483 1.001773 -162.465010 -0.735526 87.752704 3.655732 -7.509425 -1.944431 -5.832349 -8.349174 4.527481 -1.106666 5.681171 -3.708846 0.000000 -0.000000 0.000000 -6.048032 -7.828866 6.352367 3.352933 -8.349715 1.617364 6.064098 -8.408920 -6.516947 0.000000 -0.000000 0.000000 -4.629690 2.827282 3.693468 -0.247133 -1.497549 -3.158502 -1.212594 1.250472 -0.101573 0.563763 9.059031 -3.857098 5.118146 -1.700841 9.312521 -17.263896 -2.042481 -4.206226 -34.854549 -33.167108 12.931723 119.333599 -72.960555 -109.315092 -0.282043 -27.279587 -53.991116 26.691181 -0.411907 3.639076 49.972602 1.741676 20.361738 -6.631334 29.531664 10.809433 21.447232 11.453346 -2.855743 
0.002422 0.434758 1.002275 -161.285294 -0.647130 88.042321 3.792743 -8.031107 -2.577554 -5.800981 -8.850244 4.581173 -1.230009 5.596691 -3.326404 0.000000 -0.000000 0.000000 -5.745075 -8.095412 6.066385 3.279747 -9.005706 1.637873 5.926649 -8.679026 -6.494252 0.000000 -0.000000 0.000000 -4.794928 2.793353 3.973592 -0.042720 -1.833145 -3.679503 -0.968950 1.217687 0.048272 -0.233793 9.918735 -3.182333 5.661197 -1.608032 9.877932 -14.368179 -3.627184 -5.785209 -31.543405 -38.043085 10.040382 121.268490 -66.833272 -112.106169 1.248336 -27.019125 -57.332370 25.935348 -0.156028 3.379477 50.029541 0.973829 20.856790 -6.717904 29.993203 11.781092 22.018779 11.622182 -3.456265 
0.003166 0.433888 1.002685 -160.280838 -0.579087 88.101227 3.850195 -8.445540 -2.784620 -5.720949 -9.378577 4.487358 -1.439938 5.679764 -3.013920 0.000000 -0.000000 0.000000 -5.511902 -8.329125 5.977052 3.224495 -9.333738 1.684169 6.018780 -8.934454 -6.544491 0.000000 -0.000000 0.000000 -5.195514 2.999706 4.526875 0.348731 -2.219739 -4.180574 -0.509878 1.308267 0.332744 -1.165626 10.938996 -2.513703 6.144851 -1.561949 9.722635 -10.609452 -5.318214 -7.773517 -26.245433 -43.007729 4.952084 116.858701 -61.490236 -108.819618 2.567135 -26.491205 -59.009633 24.854276 0.205863 2.721896 50.280407 -0.123247 21.280819 -6.933286 30.476037 12.618814 22.262526 12.008256 -4.560999 
0.003485 0.433954 1.002889 -159.900356 -0.552267 88.101543 3.828860 -8.576428 -2.820959 -5.607264 -9.643792 4.476437 -1.605377 5.710425 -2.940206 0.000000 -0.000000 0.000000 -5.397792 -8.325649 5.982072 3.168661 -9.503460 1.669943 5.831663 -9.023210 -6.545537 0.000000 -0.000000 0.000000 -5.344201 3.180401 4.772604 0.572889 -2.390262 -4.352502 -0.327112 1.237572 0.556223 -1.626593 11.774670 -2.301002 6.325039 -1.812289 9.518742 -8.763019 -5.959209 -8.827161 -21.933298 -44.955294 1.024001 113.765932 -59.075515 -106.525911 2.350132 -26.789142 -58.153890 24.366618 0.349728 2.318663 50.448644 -0.495471 21.367733 -7.234440 30.534690 12.944733 22.510050 12.137240 -4.666729 
0.003472 0.434121 1.003179 -159.491365 -0.535321 88.091097 3.781700 -8.679512 -2.821420 -5.539079 -10.073452 4.420098 -1.783318 5.920891 -2.829833 0.000000 -0.000000 0.000000 -5.358535 -8.445432 5.976376 3.171083 -9.497585 1.682118 6.113402 -9.257358 -6.422639 0.000000 -0.000000 0.000000 -5.570027 3.327587 5.015222 0.876293 -2.664546 -4.500470 -0.123032 1.296265 0.764148 -1.945189 12.757515 -1.471887 6.526401 -1.782392 8.559151 -6.628142 -6.606394 -10.090974 -16.085481 -46.193918 -3.639324 110.161621 -57.148232 -104.319166 2.273515 -27.179287 -58.860954 23.979207 0.579279 1.668296 50.429217 -1.010968 21.749060 -7.562721 30.464585 12.702411 22.825011 11.999748 -4.649694 
0.003501 0.434490 1.003198 -159.280509 -0.527411 88.135673 3.777241 -8.708999 -2.887712 -5.561479 -10.410318 4.485120 -1.889064 6.133332 -2.804962 0.000000 -0.000000 0.000000 -5.317548 -8.555800 5.964655 3.202752 -9.444793 1.598883 6.186100 -9.377102 -6.337099 0.000000 -0.000000 0.000000 -5.784049 3.575845 5.057854 1.113626 -2.953325 -4.541055 0.007920 1.357147 0.960894 -1.939605 13.985127 -0.455507 6.990297 -1.518448 7.224932 -4.832019 -7.088398 -11.044215 -10.878302 -46.516738 -7.552315 107.625006 -55.820535 -103.031223 1.905344 -27.591299 -58.789107 23.625831 0.659331 1.189391 50.538219 -1.333165 21.916462 -7.897793 30.536199 12.547272 23.201317 11.784009 -4.805215 
0.003284 0.434846 1.003231 -159.068660 -0.529573 88.128378 3.691897 -8.640344 -2.901029 -5.510249 -10.770752 4.601465 -2.008624 6.292718 -2.828923 0.000000 -0.000000 0.000000 -5.322150 -8.636107 6.071082 3.215550 -9.401232 1.423654 6.051694 -9.372969 -6.208436 0.000000 -0.000000 0.000000 -5.873340 3.856565 5.116753 1.277390 -3.188442 -4.389054 0.081740 1.282180 1.149421 -1.986331 15.099726 0.608923 7.101979 -1.098526 5.812379 -3.389277 -7.481853 -11.689169 -6.537961 -46.170776 -10.580876 106.054375 -54.843550 -102.179999 1.659265 -28.077713 -58.617109 23.332692 0.701224 0.776619 50.636300 -1.573429 21.961696 -8.290906 30.725597 12.182754 23.101157 11.850914 -5.245782 
0.002893 0.435563 1.003163 -158.722180 -0.583165 87.906065 3.484161 -8.681849 -2.583220 -5.387586 -11.180593 4.549496 -2.155354 6.428102 -2.887301 0.000000 -0.000000 0.000000 -5.331583 -8.444653 6.525231 3.214113 -9.626485 1.200476 6.374892 -9.595033 -6.236332 0.000000 -0.000000 0.000000 -6.008174 3.896043 5.277226 1.363144 -3.463106 -3.987652 0.048648 1.303473 1.321942 -1.967131 16.183347 1.769229 7.284485 -0.737465 4.266590 -2.159579 -7.760920 -12.258436 -3.140546 -45.618176 -12.523681 104.887727 -53.988133 -102.015787 1.220736 -28.498672 -58.983214 23.228484 0.926244 0.352070 50.810284 -1.751443 22.248545 -8.777445 30.681382 11.315639 22.944432 11.563442 -5.394124 
0.002872 0.435789 1.002950 -158.453629 -0.598752 87.778230 3.439768 -8.673318 -2.432037 -5.413160 -11.496012 4.559966 -2.323109 6.548145 -2.891664 0.000000 -0.000000 0.000000 -5.332607 -8.411901 6.670307 3.247957 -9.569756 1.196587 6.235502 -9.777713 -6.324973 0.000000 -0.000000 0.000000 -6.102806 3.973718 5.513397 1.342194 -3.698551 -3.490827 0.010834 1.298089 1.516689 -1.917814 17.334215 2.937581 7.298606 0.133616 2.691742 -1.106114 -7.907341 -12.843217 0.278691 -45.007054 -14.777273 103.926458 -53.588749 -101.845666 0.925640 -28.952525 -59.497384 23.009829 1.090994 -0.055705 50.979144 -1.743595 22.565297 -8.749301 30.832795 11.389117 23.247961 11.474839 -4.966241 
0.003210 0.435473 1.002944 -158.261222 -0.542305 87.806787 3.508773 -8.709033 -2.540738 -5.427941 -11.718672 4.628507 -2.484475 6.633674 -2.901284 0.000000 -0.000000 0.000000 -5.207629 -8.402860 6.565579 3.248917 -9.581743 1.314693 6.268250 -9.959124 -6.362781 0.000000 -0.000000 0.000000 -6.148347 4.028660 5.821627 1.350921 -3.872493 -3.215788 0.001908 1.206137 1.658764 -1.953400 18.086108 3.702129 7.289618 0.556072 1.712038 -0.500742 -8.001394 -13.113301 2.713237 -44.199938 -16.283059 103.427303 -53.200221 -102.051483 0.664415 -29.491553 -60.143222 22.853594 1.261253 -0.286564 50.959216 -1.692380 22.820870 -8.580660 31.026977 11.481431 23.427340 11.414010 -4.850334 
0.003714 0.434905 1.003176 -158.183325 -0.447298 87.892051 3.600001 -8.641736 -2.683488 -5.387636 -11.927245 4.696984 -2.577465 6.719636 -2.878211 0.000000 -0.000000 0.000000 -5.011417 -8.484171 6.277805 3.153924 -9.447523 1.537297 6.134079 -10.091603 -6.377557 0.000000 -0.000000 0.000000 -6.271270 4.185679 6.235321 1.364389 -3.948605 -2.995540 0.070352 1.089831 1.803219 -2.021165 18.613792 4.149065 7.374455 0.829448 0.889127 0.201298 -8.042401 -13.327488 4.638814 -43.478246 -17.498128 102.984189 -52.603714 -102.012078 0.530245 -29.505417 -59.677622 22.694813 1.454034 -0.548238 51.014881 -1.787042 23.005169 -8.517967 31.165952 11.337044 23.578635 11.191129 -4.782269 
0.004485 0.433832 1.003349 -158.087358 -0.322188 88.091315 3.738556 -8.688101 -3.027631 -5.321315 -12.015973 4.832344 -2.712562 6.780822 -2.895459 0.000000 -0.000000 0.000000 -4.756912 -8.445803 5.903693 3.103987 -9.504730 1.666442 6.254949 -10.198209 -6.318476 0.000000 -0.000000 0.000000 -6.426653 4.299728 6.831288 1.383086 -4.070405 -2.886678 0.192108 1.063446 1.933389 -1.963368 18.976945 4.436689 7.383540 0.899366 0.035695 0.779575 -8.152728 -13.661245 6.450080 -42.817051 -18.718651 102.320259 -52.135468 -101.688064 0.236845 -30.056828 -59.165729 22.481995 1.547879 -0.878354 51.210248 -1.915764 23.098244 -8.597206 31.306094 11.366983 23.957356 11.273176 -4.647914 
0.005472 0.433061 1.003567 -157.965299 -0.174175 88.275328 3.934421 -8.616031 -3.364859 -5.295969 -12.200358 4.979948 -2.880142 6.811592 -2.919404 0.000000 -0.000000 0.000000 -4.495779 -8.529948 5.600321 3.104617 -9.462676 1.707559 6.265021 -10.242621 -6.293621 0.000000 -0.000000 0.000000 -6.672344 4.310507 7.582866 1.489233 -4.246377 -2.787553 0.342024 1.073600 2.072009 -1.962077 19.184226 4.371787 7.409696 0.833436 -0.806082 1.278192 -8.073556 -13.961509 8.169873 -42.161078 -19.849386 102.019860 -51.618252 -101.797838 0.451766 -30.250870 -59.311872 22.384454 1.606911 -1.218491 51.256603 -2.016397 23.236171 -8.662282 31.520600 11.200854 23.789375 11.223194 -4.686096 
0.006591 0.431962 1.003649 -157.868143 0.042275 88.541570 4.230964 -8.516457 -3.943180 -5.319465 -12.299206 5.343317 -3.005811 6.771815 -2.941016 0.000000 -0.000000 0.000000 -4.144077 -8.423402 5.133839 3.077427 -9.500053 1.872529 6.162856 -10.315267 -6.267417 0.000000 -0.000000 0.000000 -6.855915 4.268877 8.379785 1.607516 -4.349059 -2.731010 0.501765 1.048142 2.190115 -1.934727 19.350193 4.099822 7.322665 0.855408 -1.456272 1.690565 -8.012108 -14.263129 9.673403 -41.597460 -20.968347 101.963373 -51.020741 -101.772113 0.500551 -30.392222 -58.492946 22.229412 1.790035 -1.433115 51.328499 -2.062167 23.331637 -8.718125 31.550670 11.180184 23.688982 11.330418 -4.619675 
0.007655 0.430889 1.003671 -157.816085 0.201674 88.847318 4.446766 -8.523810 -4.466341 -5.292380 -12.413742 5.532041 -3.068845 6.838147 -2.863386 0.000000 -0.000000 0.000000 -3.856433 -8.368614 4.546053 3.046728 -9.527830 2.147504 6.207082 -10.417234 -6.305927 0.000000 -0.000000 0.000000 -7.039613 4.334538 9.082249 1.653826 -4.431776 -2.632683 0.647015 0.884125 2.180393 -1.915140 19.461193 3.941690 7.420206 0.785641 -1.926934 2.074404 -8.151689 -14.408254 10.834828 -41.061574 -21.879141 102.009868 -50.438379 -101.688524 -0.017859 -30.718697 -57.609218 22.086016 1.985484 -1.550051 51.473708 -2.103870 23.270502 -8.769831 31.539160 11.298504 24.118375 11.348149 -4.699773 
